<svg id="Bold" height="512" viewBox="0 0 24 24" width="512" xmlns="http://www.w3.org/2000/svg"><g><path d="m23.85 6.22c-.23-.38-.68-.56-1.12-.44-1.54.43-3.19-.21-4.02-1.55-.84-1.37-2.39-2.23-4.06-2.23-.69 0-1.37.22-1.92.62l-.73.54-.73-.53c-.55-.41-1.23-.63-1.94-.63-1.65 0-3.2.86-4.04 2.23-.83 1.35-2.48 1.98-4.02 1.55-.43-.12-.89.06-1.12.44-.24.39-.19.88.12 1.21l2.65 2.82c1.84 1.98 4.84 2.33 7.12.84 1.19-.77 2.73-.77 3.92 0v.01c.24.15.48.29.73.4l.37-.37c1.41-1.41 3.75-1.48 5.24-.19.28-.2.54-.43.78-.69l2.65-2.82c.31-.33.36-.82.12-1.21z"/></g><g><path d="m19.44 12.51c-.67-.68-1.77-.68-2.44 0l-4.49 4.49c-.68.67-.68 1.77 0 2.44l.25.25 6.93-6.93zm1.55 1.55-.24-.24-6.93 6.93.24.24c.34.34.78.51 1.22.51s.89-.17 1.22-.51l4.49-4.49c.68-.67.68-1.77 0-2.44z"/></g><g><path d="m23 24c-.256 0-.512-.098-.707-.293l-4.75-4.75c-.391-.391-.391-1.023 0-1.414s1.023-.391 1.414 0l4.75 4.75c.391.391.391 1.023 0 1.414-.195.195-.451.293-.707.293z"/></g></svg>