<?xml version="1.0" encoding="iso-8859-1"?>
<!-- Generator: Adobe Illustrator 16.0.0, SVG Export Plug-In . SVG Version: 6.00 Build 0)  -->
<!DOCTYPE svg PUBLIC "-//W3C//DTD SVG 1.1//EN" "http://www.w3.org/Graphics/SVG/1.1/DTD/svg11.dtd">
<svg version="1.1" id="Capa_1" xmlns="http://www.w3.org/2000/svg" xmlns:xlink="http://www.w3.org/1999/xlink" x="0px" y="0px"
	 width="379.075px" height="379.075px" viewBox="0 0 379.075 379.075" style="enable-background:new 0 0 379.075 379.075;"
	 xml:space="preserve">
<g>
	<path d="M335.91,140.862c0,0,30.243,11.455,35.731,13.738c-0.911-16.944-40.31-33.899-40.31-33.899s21.533-3.667,29.321,1.845
		c0-17.422-47.631-27.488-47.631-27.488s37.11-5.506,47.631,0c0-21.994-70.541-11.006-70.541-11.006s28.398-23.804,42.131-21.977
		c-10.521-16.488-58.619,7.316-58.619,7.316s16.488-27.943,31.154-28.399c-11.011-15.122-57.72,10.083-57.72,10.083
		s21.065-17.866,36.631-20.161c-15.775-11-58.607,12.821-58.607,12.821s5.488-20.604,22.888-29.31
		c-17.399-10.533-48.565,23.816-48.565,23.816s12.821-22.905,31.154-37.554c-27.499-7.8-69.619,53.125-69.619,53.125
		s-8.717-27.955,5.488-39.398c-28.399-5.045-30.226,32.976-30.226,32.976s-24.727-11.409-29.31-22.864
		c-15.11,19.693,16.488,34.809,16.488,34.809s-35.271-3.672-38.465-20.16C67.039,56.133,85.839,95.07,85.839,95.07
		S58.8,94.147,61.095,81.326c-12.827,5.033-6.417,30.232-6.417,30.232s-6.411,1.816-10.083-11
		c-7.315,21.533,6.411,34.815,6.411,34.815s-15.116-5.512-21.071-15.577c-6.86,16.021,14.66,40.309,14.66,40.309
		s-21.065-13.744-24.271-22.449c-6.866,17.399,17.86,46.265,17.86,46.265s-22.893-16.044-25.661-22.91
		c-9.155,14.672,25.661,47.648,25.661,47.648s-27.395-3.947-30.227-18.327c-4.122,14.672,17.411,29.327,17.411,29.327
		S17.131,265.9,7.958,251.712c-0.455,26.111,34.81,23.822,34.81,23.822s-3.661,19.688-14.661,22.91
		c15.116,16.033,26.571-12.821,26.571-12.821s-3.217,34.343-15.571,40.403c14.205,10.193,24.726-14.761,24.726-14.761
		s7.321,26.612-5.5,29.31c11,6.878,15.583-8.232,15.583-8.232s4.122,18.766,0,24.721c12.366,4.146,13.727-17.398,13.727-17.398
		s25.193,26.588,26.583,39.41c15.84-12.693-0.695-46.09-18.023-76.988c-3.229-18.636-4.986-48.553,6.329-53.41
		c6.072-2.604,12.996,2.498,23.628,11.21c12.395,10.183,27.833,22.829,46.679,14.409c12.757-5.698,15.939-17.247,19.285-29.496
		c5.623-20.436,13.33-48.086,66.437-76.672c8.162,22.887,6.422,48.074-11.514,57.043c35.709,10.065,32.381-76.871,32.381-76.871
		s25.853,42.51,7.929,64.959c37.565-4.192,9.446-68.142,9.446-68.142s15.729,7.222,16.196,34.237
		c17.399-11.455,3.655-43.06,3.655-43.06s25.666,19.682,25.666,34.81C355.609,156.445,335.91,140.862,335.91,140.862z"/>
</g>
<g>
</g>
<g>
</g>
<g>
</g>
<g>
</g>
<g>
</g>
<g>
</g>
<g>
</g>
<g>
</g>
<g>
</g>
<g>
</g>
<g>
</g>
<g>
</g>
<g>
</g>
<g>
</g>
<g>
</g>
</svg>
