<?xml version="1.0"?>
<svg xmlns="http://www.w3.org/2000/svg" id="outline" viewBox="0 0 512 512" width="512" height="512"><path d="M192,496h32a7.99968,7.99968,0,0,0,7.89941-6.73584L256,338.63623l24.10059,150.62793A7.99968,7.99968,0,0,0,288,496h32a8.00008,8.00008,0,0,0,8-8V296h24a7.9992,7.9992,0,0,0,7.76074-6.05957l24-96a7.99968,7.99968,0,0,0,.03418-3.73926l-19.97754-86.56982A45.8237,45.8237,0,0,0,340.13965,73.145l-45.418-30.27881-7.13184-21.396A8.00071,8.00071,0,0,0,280,16H232a8.00071,8.00071,0,0,0-7.58984,5.47021l-7.13184,21.396L171.86035,73.145a45.8242,45.8242,0,0,0-23.67773,30.48682l-19.97754,86.56933a7.99968,7.99968,0,0,0,.03418,3.73926l24,96A7.9992,7.9992,0,0,0,160,296h24V488A8.00008,8.00008,0,0,0,192,496Zm102.82129-16L263.89941,286.73584a7.99991,7.99991,0,0,0-15.79882,0L217.17871,480H200V224H312V480ZM328,280V264h21.75391l-4,16Zm39.77246-88.07471L353.75391,248H328V216.46973L342.2832,95.06445a29.94129,29.94129,0,0,1,5.94434,12.165ZM312.88574,208H288V152a7.99738,7.99738,0,0,0-1.80859-5.06592l-17.94336-21.93091,40.27783-53.70434L327.48145,83.936ZM256,42.6665,248.00024,32H264Zm39.19238,19.74317L264,103.99976V58.667l13.23926-17.652,3.1709,9.51478a7.99788,7.99788,0,0,0,3.15234,4.12646ZM228.4375,54.65625a7.99788,7.99788,0,0,0,3.15234-4.12646L234.761,41.015,248,58.667v41.58863l-31.04517-37.9441Zm-24.85889,16.573L272,154.85547V208H199.11426L184.51855,83.936ZM163.77246,107.23A29.94057,29.94057,0,0,1,169.717,95.06445L184,216.46973V248H158.24609l-14.01855-56.07471ZM166.24609,280l-4-16H184v16Z"/><circle cx="256" cy="160" r="8"/><circle cx="256" cy="184" r="8"/></svg>
